<?xml version="1.0" standalone="no"?><!DOCTYPE svg PUBLIC "-//W3C//DTD SVG 1.1//EN" "http://www.w3.org/Graphics/SVG/1.1/DTD/svg11.dtd"><svg class="icon" width="200px" height="200.00px" viewBox="0 0 1024 1024" version="1.1" xmlns="http://www.w3.org/2000/svg"><path fill="#333333" d="M867.328 104.96H156.672c-49.152 0-89.088 39.936-89.088 89.088V829.44c0 49.152 39.936 89.088 89.088 89.088h711.168c49.152 0 89.088-39.936 89.088-89.088V194.048c0-49.152-40.448-89.088-89.6-89.088z m42.496 724.992c0 23.552-18.944 42.496-42.496 42.496H156.672c-23.552 0-42.496-18.944-42.496-42.496V194.048c0-23.552 18.944-42.496 42.496-42.496h711.168c23.552 0 42.496 18.944 42.496 42.496v635.904zM775.68 318.976H369.664c-8.192-31.232-36.864-54.784-70.656-54.784C258.56 264.192 225.28 297.472 225.28 337.92s33.28 73.728 73.728 73.728c30.72 0 57.344-18.944 68.096-46.08h409.088c12.8 0 23.552-10.24 23.552-23.552-0.512-12.8-11.264-23.04-24.064-23.04z m-477.184 46.08c-14.848 0-27.136-12.288-27.136-27.136s12.288-27.136 27.136-27.136 27.136 12.288 27.136 27.136-12.288 27.136-27.136 27.136zM775.68 582.144H369.664C360.96 550.912 332.8 527.36 298.496 527.36c-40.448 0-73.728 33.28-73.728 73.728s33.28 73.728 73.728 73.728c30.72 0 57.344-18.944 68.096-46.08h409.088c12.8 0 23.552-10.24 23.552-23.552 0-12.8-10.752-23.04-23.552-23.04z m-477.184 46.08c-14.848 0-27.136-12.288-27.136-27.136s12.288-27.136 27.136-27.136 27.136 12.288 27.136 27.136-12.288 27.136-27.136 27.136zM775.68 450.048h-250.88c-12.8 0-23.552 10.24-23.552 23.552 0 12.8 10.24 23.552 23.552 23.552h250.88c12.8 0 23.552-10.24 23.552-23.552 0-13.312-10.752-23.552-23.552-23.552zM775.68 713.216h-250.88c-12.8 0-23.552 10.24-23.552 23.552s10.24 23.552 23.552 23.552h250.88c12.8 0 23.552-10.24 23.552-23.552s-10.752-23.552-23.552-23.552z" /></svg>