<?xml version="1.0" standalone="no"?><!DOCTYPE svg PUBLIC "-//W3C//DTD SVG 1.1//EN" "http://www.w3.org/Graphics/SVG/1.1/DTD/svg11.dtd"><svg class="icon" width="200px" height="200.00px" viewBox="0 0 1024 1024" version="1.1" xmlns="http://www.w3.org/2000/svg"><path d="M937.642667 363.477333l-39.765334 307.050667A112.213333 112.213333 0 0 1 786.752 768H394.048a111.722667 111.722667 0 0 1-110.357333-92.565333L200.490667 199.253333a47.850667 47.850667 0 0 0-36.650667-38.4l-53.568-12.138666a32 32 0 1 1 14.186667-62.250667l53.568 12.138667a111.616 111.616 0 0 1 85.525333 89.770666l83.2 476.202667A47.936 47.936 0 0 0 394.048 704h392.704a48.128 48.128 0 0 0 47.637333-41.770667l39.765334-307.050666a47.914667 47.914667 0 0 0-47.616-54.037334H413.162667a32 32 0 1 1 0-63.850666h413.376a111.829333 111.829333 0 0 1 111.104 126.186666zM373.333333 832a53.333333 53.333333 0 1 1-53.333333 53.333333 53.333333 53.333333 0 0 1 53.333333-53.333333z m448 0a53.333333 53.333333 0 1 1-53.333333 53.333333 53.333333 53.333333 0 0 1 53.333333-53.333333z" fill="#333333" /><path d="M469.333333 554.666667m32 0l170.666667 0q32 0 32 32l0 0q0 32-32 32l-170.666667 0q-32 0-32-32l0 0q0-32 32-32Z" fill="#FF9C00" /></svg>