<?xml version="1.0" standalone="no"?><!DOCTYPE svg PUBLIC "-//W3C//DTD SVG 1.1//EN" "http://www.w3.org/Graphics/SVG/1.1/DTD/svg11.dtd"><svg class="icon" width="200px" height="200.00px" viewBox="0 0 1024 1024" version="1.1" xmlns="http://www.w3.org/2000/svg"><path fill="#333333" d="M974.336 553.984c-5.632 0-11.264-2.048-15.872-6.144l-419.328-386.048c-16.384-14.848-41.472-14.848-57.344 0L62.976 547.84c-9.216 8.704-24.064 8.192-32.768-1.536-8.704-9.216-8.192-24.064 1.536-32.768L450.56 127.488c33.792-31.232 87.04-31.232 120.832 0l419.328 386.048c9.728 8.704 10.24 23.552 1.536 32.768-5.12 5.12-11.264 7.68-17.92 7.68zM750.08 928.256H271.36c-49.152 0-89.088-39.936-89.088-89.088v-312.32c0-12.8 10.24-23.552 23.552-23.552s23.552 10.24 23.552 23.552v312.32c0 23.552 18.944 42.496 42.496 42.496h478.72c23.552 0 42.496-18.944 42.496-42.496v-312.32c0-12.8 10.24-23.552 23.552-23.552s23.552 10.24 23.552 23.552v312.32c-1.024 49.152-40.96 89.088-90.112 89.088zM510.976 818.688c-69.632 0-127.488-54.272-132.608-122.368-0.512-1.536-0.512-3.072-0.512-4.608v-118.784c0-38.4 31.232-69.632 69.632-69.632h127.488c38.4 0 69.632 31.232 69.632 69.632V691.712c0 1.536 0 2.56-0.512 4.096-5.632 68.608-63.488 122.88-133.12 122.88z m-86.528-133.12c0 47.616 38.912 86.528 86.528 86.528 47.104 0 85.504-37.888 86.528-84.992v-114.176c0-12.8-10.24-22.528-22.528-22.528h-128c-12.8 0-22.528 10.24-22.528 22.528v112.64z" /></svg>