<?xml version="1.0" standalone="no"?><!DOCTYPE svg PUBLIC "-//W3C//DTD SVG 1.1//EN" "http://www.w3.org/Graphics/SVG/1.1/DTD/svg11.dtd"><svg class="icon" width="200px" height="200.00px" viewBox="0 0 1024 1024" version="1.1" xmlns="http://www.w3.org/2000/svg"><path fill="#333333" d="M681.718519 541.392593c-7.300741 0-14.696296-2.844444-20.195556-8.438519L321.611852 189.25037c-10.998519-11.188148-10.903704-29.202963 0.189629-40.201481 11.188148-10.998519 29.202963-10.903704 40.201482 0.18963L701.819259 493.037037c10.998519 11.188148 10.903704 29.202963-0.189629 40.201482-5.499259 5.404444-12.705185 8.154074-19.911111 8.154074z"  /><path fill="#333333" d="M341.902222 884.811852c-7.205926 0-14.411852-2.74963-20.005926-8.248889-11.188148-10.998519-11.282963-29.013333-0.189629-40.201482l339.816296-343.798518c10.998519-11.188148 29.013333-11.282963 40.201481-0.18963 11.188148 10.998519 11.282963 29.013333 0.18963 40.201482L362.097778 876.373333c-5.594074 5.594074-12.894815 8.438519-20.195556 8.438519z"  /></svg>