<?xml version="1.0" standalone="no"?><!DOCTYPE svg PUBLIC "-//W3C//DTD SVG 1.1//EN" "http://www.w3.org/Graphics/SVG/1.1/DTD/svg11.dtd"><svg class="icon" width="200px" height="200.00px" viewBox="0 0 1024 1024" version="1.1" xmlns="http://www.w3.org/2000/svg"><path fill="#333333" d="M512 485.888c-108.032 0-195.584-88.064-195.584-195.584 0-108.032 88.064-195.584 195.584-195.584s195.584 88.064 195.584 195.584c0 107.52-87.552 195.584-195.584 195.584z m0-345.088c-82.432 0-148.992 67.072-148.992 148.992s66.56 149.504 148.992 149.504 148.992-67.072 148.992-148.992-66.56-149.504-148.992-149.504zM890.368 929.792h-92.16c-12.8 0-23.552-10.24-23.552-23.552s10.24-23.552 23.552-23.552h68.096c-12.288-184.832-166.4-331.776-354.304-331.776s-342.528 146.944-354.304 331.776h503.296c12.8 0 23.552 10.24 23.552 23.552s-10.24 23.552-23.552 23.552h-527.36c-12.8 0-23.552-10.24-23.552-23.552 0-221.696 180.224-401.92 401.92-401.92s401.92 180.224 401.92 401.92c0 13.312-10.752 23.552-23.552 23.552z" /></svg>